<svg id="Layer_4" data-name="Layer 4" xmlns="http://www.w3.org/2000/svg" viewBox="0 0 45.16 35.49">
  <defs>
    <style>
      .cls-1 {
        stroke-linejoin: round;
      }

      .cls-1, .cls-2 {
        fill: none;
        stroke: #000;
        stroke-linecap: round;
      }

      .cls-2 {
        stroke-miterlimit: 10;
        stroke-width: 3px;
      }
    </style>
  </defs>
  <path class="cls-1" d="M44.66,1.39c-2.54,4.47-6.11,8.03-9.22,12.05-1.62,2.09-3.36,4.23-3.78,6.86-.38,2.37-.08,4.85.04,7.28.12,2.34.92,4.16,3.13,5.23.31.15.83.34.75.87-.09.55-.61.61-1.03.74-3.57,1.17-5.51.37-7.13-2.98-.46-.96-.84-1.97-1.22-2.96-.59-1.52-1.33-2.98-2.5-4.19-.73-.76-1.33-1.59-1.69-2.65-.43-1.29-.04-2.43.96-2.76,1.62-.54,2.08-1.81,2.64-3.06,1.7-3.86,3.99-7.42,5.71-11.28.46-1.05.94-2.11,1.41-3.16.32-.71.73-.91,1.38-.87,3.32.18,6.64.62,9.97.6.44,0,.53,0,.6.29"/>
  <polyline class="cls-2" points="1.5 11.95 16.73 11.95 22.94 11.95"/>
  <polyline class="cls-2" points="11.65 4.61 22.21 4.61 26.52 4.61"/>
  <polyline class="cls-2" points="6.87 19.31 14.55 19.31 17.68 19.31"/>
  <polyline class="cls-2" points="13.68 26.76 19.13 26.76 21.36 26.76"/>
  <polyline class="cls-2" points="19.1 33.99 22.97 33.99 24.55 33.99"/>
</svg>
